<svg xmlns="http://www.w3.org/2000/svg" width="505.333" height="505.333" preserveAspectRatio="xMidYMid meet" version="1.0" viewBox="0 0 379 379"><g fill="#000" stroke="none"><path d="M1690 3779 c-226 -25 -439 -90 -650 -196 -367 -185 -648 -466 -833 -833 -168 -333 -235 -693 -196 -1048 81 -747 579 -1366 1289 -1603 203 -67 287 -80 545 -86 205 -5 244 -3 359 17 804 136 1420 752 1556 1556 20 115 22 154 17 359 -6 258 -19 342 -86 545 -283 846 -1123 1388 -2001 1289z m686 -859 c330 -110 487 -167 500 -181 18 -20 19 -43 18 -418 -1 -389 -1 -398 -28 -525 -75 -360 -271 -659 -583 -890 -96 -71 -260 -158 -335 -178 -196 -51 -629 259 -841 602 -92 150 -161 328 -193 500 -25 134 -34 853 -11 896 14 26 52 41 498 190 266 89 486 163 488 163 3 1 222 -71 487 -159z" transform="translate(0.000000,379.000000) scale(0.100000,-0.100000)"/><path d="M1890 1900 c0 -774 1 -850 16 -850 31 0 140 60 225 124 163 123 313 323 384 512 54 142 65 237 65 540 0 244 -2 280 -17 296 -14 15 -632 228 -663 228 -7 0 -10 -288 -10 -850z" transform="translate(0.000000,379.000000) scale(0.100000,-0.100000)"/></g></svg>