<?xml version="1.0" standalone="no"?>
<!DOCTYPE svg PUBLIC "-//W3C//DTD SVG 20010904//EN"
 "http://www.w3.org/TR/2001/REC-SVG-20010904/DTD/svg10.dtd">
<svg version="1.0" xmlns="http://www.w3.org/2000/svg"
 width="379.000000pt" height="379.000000pt" viewBox="0 0 379.000000 379.000000"
 preserveAspectRatio="xMidYMid meet">

<g transform="translate(0.000000,379.000000) scale(0.100000,-0.100000)"
fill="#000000" stroke="none">
<path d="M1690 3779 c-226 -25 -439 -90 -650 -196 -367 -185 -648 -466 -833
-833 -168 -333 -235 -693 -196 -1048 81 -747 579 -1366 1289 -1603 203 -67
287 -80 545 -86 205 -5 244 -3 359 17 804 136 1420 752 1556 1556 20 115 22
154 17 359 -6 258 -19 342 -86 545 -283 846 -1123 1388 -2001 1289z m-275
-894 c157 -44 304 -138 406 -259 55 -64 139 -213 139 -246 0 -7 -29 -43 -64
-81 -109 -115 -183 -263 -212 -419 -7 -41 -13 -81 -14 -89 0 -12 -20 -13 -113
-8 -146 9 -249 35 -367 94 -77 39 -111 63 -181 133 -101 100 -159 192 -202
323 -30 90 -30 97 -35 336 l-4 243 294 -5 c234 -4 305 -8 353 -22z m1603 -632
c-4 -181 -8 -217 -28 -278 -67 -208 -214 -378 -400 -462 -108 -49 -192 -64
-392 -70 l-188 -6 0 -279 0 -278 -116 0 -115 0 3 488 4 487 28 85 c37 110 56
148 123 237 104 138 279 243 455 272 29 5 183 9 342 10 l288 1 -4 -207z"/>
</g>
</svg>
