<?xml version="1.0" standalone="no"?>
<!DOCTYPE svg PUBLIC "-//W3C//DTD SVG 20010904//EN"
 "http://www.w3.org/TR/2001/REC-SVG-20010904/DTD/svg10.dtd">
<svg version="1.0" xmlns="http://www.w3.org/2000/svg"
 width="379.000000pt" height="379.000000pt" viewBox="0 0 379.000000 379.000000"
 preserveAspectRatio="xMidYMid meet">

<g transform="translate(0.000000,379.000000) scale(0.100000,-0.100000)"
fill="#000000" stroke="none">
<path d="M1690 3779 c-226 -25 -439 -90 -650 -196 -367 -185 -648 -466 -833
-833 -168 -333 -235 -693 -196 -1048 81 -747 579 -1366 1289 -1603 203 -67
287 -80 545 -86 205 -5 244 -3 359 17 804 136 1420 752 1556 1556 20 115 22
154 17 359 -6 258 -19 342 -86 545 -283 846 -1123 1388 -2001 1289z m-165
-1073 c25 -11 54 -43 111 -125 l78 -111 405 0 c385 0 408 -1 438 -20 51 -31
63 -65 63 -180 l0 -100 -685 0 c-763 0 -731 3 -782 -68 -15 -21 -93 -177 -173
-346 l-145 -307 -3 581 c-2 641 -3 631 60 670 31 19 50 20 316 20 221 0 290
-3 317 -14z m1331 -668 c17 -9 45 -33 63 -53 27 -31 31 -43 31 -95 0 -56 -7
-74 -169 -397 -94 -186 -178 -348 -188 -359 -10 -12 -34 -30 -53 -40 -33 -18
-77 -19 -790 -22 -415 -2 -775 0 -799 3 -48 7 -111 58 -111 90 0 16 340 742
379 808 20 34 72 68 120 78 20 4 362 6 761 6 662 -2 728 -3 756 -19z"/>
</g>
</svg>
