<?xml version="1.0" standalone="no"?>
<!DOCTYPE svg PUBLIC "-//W3C//DTD SVG 20010904//EN"
 "http://www.w3.org/TR/2001/REC-SVG-20010904/DTD/svg10.dtd">
<svg version="1.0" xmlns="http://www.w3.org/2000/svg"
 width="379.000000pt" height="379.000000pt" viewBox="0 0 379.000000 379.000000"
 preserveAspectRatio="xMidYMid meet">

<g transform="translate(0.000000,379.000000) scale(0.100000,-0.100000)"
fill="#000000" stroke="none">
<path d="M1690 3779 c-226 -25 -439 -90 -650 -196 -367 -185 -648 -466 -833
-833 -168 -333 -235 -693 -196 -1048 81 -747 579 -1366 1289 -1603 203 -67
287 -80 545 -86 205 -5 244 -3 359 17 804 136 1420 752 1556 1556 20 115 22
154 17 359 -6 258 -19 342 -86 545 -283 846 -1123 1388 -2001 1289z m411 -849
c401 -82 709 -375 816 -775 22 -85 26 -121 27 -245 1 -218 -37 -364 -144 -556
-63 -111 -253 -301 -364 -364 -192 -107 -338 -145 -556 -144 -124 1 -160 5
-245 27 -334 89 -605 329 -725 641 -100 258 -91 573 24 820 206 446 690 693
1167 596z"/>
<path d="M1823 2410 c-127 -77 -47 -274 99 -246 45 8 97 62 104 108 19 115
-104 199 -203 138z"/>
<path d="M1660 2005 l0 -105 50 0 50 0 0 -190 0 -190 -50 0 -50 0 0 -100 0
-100 235 0 235 0 0 100 0 100 -50 0 -50 0 0 295 0 295 -185 0 -185 0 0 -105z"/>
</g>
</svg>
