<?xml version="1.0" standalone="no"?>
<!DOCTYPE svg PUBLIC "-//W3C//DTD SVG 20010904//EN"
 "http://www.w3.org/TR/2001/REC-SVG-20010904/DTD/svg10.dtd">
<svg version="1.0" xmlns="http://www.w3.org/2000/svg"
 width="379.000000pt" height="379.000000pt" viewBox="0 0 379.000000 379.000000"
 preserveAspectRatio="xMidYMid meet">

<g transform="translate(0.000000,379.000000) scale(0.100000,-0.100000)"
fill="#000000" stroke="none">
<path d="M1690 3779 c-226 -25 -439 -90 -650 -196 -367 -185 -648 -466 -833
-833 -168 -333 -235 -693 -196 -1048 81 -747 579 -1366 1289 -1603 203 -67
287 -80 545 -86 205 -5 244 -3 359 17 804 136 1420 752 1556 1556 20 115 22
154 17 359 -6 258 -19 342 -86 545 -283 846 -1123 1388 -2001 1289z m1200
-909 c0 -6 -7 -75 -16 -153 -45 -417 -153 -860 -273 -1121 -182 -394 -497
-604 -876 -583 -155 9 -297 55 -428 139 l-48 31 -127 -132 c-73 -75 -135 -131
-145 -131 -22 0 -59 19 -69 34 -4 6 -8 29 -8 50 0 37 8 47 126 167 l127 128
-32 56 c-73 130 -103 251 -104 420 0 114 3 141 27 220 57 188 164 345 314 458
82 62 307 178 432 222 186 66 580 154 840 189 129 17 260 20 260 6z"/>
<path d="M2025 2019 l-630 -630 30 -25 c45 -37 162 -91 235 -108 141 -34 316
-11 443 56 70 38 172 129 228 204 62 85 170 317 185 400 3 15 18 75 35 133 16
58 40 160 54 226 24 123 59 365 53 371 -2 2 -287 -280 -633 -627z"/>
</g>
</svg>
