<?xml version="1.0" standalone="no"?>
<!DOCTYPE svg PUBLIC "-//W3C//DTD SVG 20010904//EN"
 "http://www.w3.org/TR/2001/REC-SVG-20010904/DTD/svg10.dtd">
<svg version="1.0" xmlns="http://www.w3.org/2000/svg"
 width="379.000000pt" height="379.000000pt" viewBox="0 0 379.000000 379.000000"
 preserveAspectRatio="xMidYMid meet">

<g transform="translate(0.000000,379.000000) scale(0.100000,-0.100000)"
fill="#000000" stroke="none">
<path d="M1690 3779 c-226 -25 -439 -90 -650 -196 -367 -185 -648 -466 -833
-833 -168 -333 -235 -693 -196 -1048 81 -747 579 -1366 1289 -1603 203 -67
287 -80 545 -86 205 -5 244 -3 359 17 804 136 1420 752 1556 1556 20 115 22
154 17 359 -6 258 -19 342 -86 545 -283 846 -1123 1388 -2001 1289z m1166
-838 c121 -55 129 -186 25 -396 -114 -229 -348 -529 -666 -854 -543 -554
-1058 -905 -1251 -852 -55 15 -93 46 -115 95 -42 93 -9 211 117 423 31 52 60
91 64 86 5 -4 32 -45 62 -89 49 -74 53 -83 40 -100 -17 -22 -88 -169 -97 -201
-6 -22 -5 -22 32 -9 87 31 333 175 333 196 0 3 -25 27 -55 53 -249 216 -334
584 -207 909 56 145 169 284 303 374 152 101 293 139 484 131 235 -10 426 -98
574 -264 31 -34 54 -53 60 -47 47 51 159 247 187 327 13 37 13 38 -9 32 -39
-12 -144 -62 -182 -88 l-37 -25 -81 55 c-45 30 -86 58 -90 62 -10 10 137 101
230 143 130 59 210 70 279 39z m-149 -1063 c-5 -142 -30 -245 -84 -353 -70
-140 -216 -286 -358 -357 -108 -55 -211 -80 -355 -85 l-135 -6 100 84 c243
204 535 495 725 722 58 69 107 126 109 126 2 1 1 -59 -2 -131z"/>
</g>
</svg>
