<svg xmlns="http://www.w3.org/2000/svg" width="505.333" height="505.333" preserveAspectRatio="xMidYMid meet" version="1.0" viewBox="0 0 379 379"><g fill="#000" stroke="none"><path d="M1690 3779 c-226 -25 -439 -90 -650 -196 -367 -185 -648 -466 -833 -833 -168 -333 -235 -693 -196 -1048 81 -747 579 -1366 1289 -1603 203 -67 287 -80 545 -86 205 -5 244 -3 359 17 804 136 1420 752 1556 1556 20 115 22 154 17 359 -6 258 -19 342 -86 545 -283 846 -1123 1388 -2001 1289z m277 -865 c2 -7 -26 -28 -62 -48 -82 -47 -213 -145 -254 -191 -48 -55 -43 -85 29 -162 51 -54 60 -69 60 -101 0 -34 -11 -47 -147 -184 -164 -164 -173 -169 -233 -118 -19 17 -40 30 -48 30 -27 0 -72 -31 -78 -54 -6 -25 14 -74 40 -95 32 -27 19 -64 -42 -124 -32 -31 -65 -57 -73 -57 -18 0 -322 303 -327 326 -5 23 117 144 144 144 13 0 37 -12 54 -27 40 -33 86 -35 112 -4 25 31 23 61 -7 101 -47 63 -43 69 161 250 102 91 204 178 227 193 102 69 216 114 325 127 84 10 114 8 119 -6z m652 -212 c19 -9 37 -23 39 -30 2 -7 -50 -68 -117 -136 -71 -71 -121 -130 -121 -141 0 -26 198 -225 224 -225 11 0 70 50 141 120 158 156 171 153 163 -34 -3 -79 -8 -102 -36 -157 -41 -84 -107 -150 -190 -191 -66 -33 -68 -33 -215 -33 l-149 0 -30 -38 -30 -37 -129 122 -130 121 47 48 46 47 -11 51 c-34 160 15 324 125 421 42 36 139 87 192 99 64 15 144 12 181 -7z m-614 -722 c471 -441 775 -731 797 -763 19 -26 23 -45 23 -103 0 -61 -4 -76 -27 -110 -36 -52 -78 -75 -146 -81 -47 -4 -65 0 -100 19 -30 16 -200 189 -547 558 l-504 535 107 107 106 108 25 -23 c14 -12 133 -123 266 -247z m-175 -394 c72 -76 130 -142 130 -146 0 -4 -105 -124 -232 -266 -155 -171 -246 -264 -273 -278 -61 -32 -167 -29 -220 6 -82 53 -115 111 -115 206 0 100 17 121 305 384 143 130 263 236 268 235 4 -1 66 -64 137 -141z" transform="translate(0.000000,379.000000) scale(0.100000,-0.100000)"/><path d="M1285 1174 c-27 -29 -33 -80 -14 -116 6 -11 26 -26 45 -34 29 -12 39 -12 67 -1 45 19 62 43 62 89 0 31 -7 45 -28 64 -40 34 -100 33 -132 -2z" transform="translate(0.000000,379.000000) scale(0.100000,-0.100000)"/></g></svg>