<?xml version="1.0" standalone="no"?>
<!DOCTYPE svg PUBLIC "-//W3C//DTD SVG 20010904//EN"
 "http://www.w3.org/TR/2001/REC-SVG-20010904/DTD/svg10.dtd">
<svg version="1.0" xmlns="http://www.w3.org/2000/svg"
 width="379.000000pt" height="379.000000pt" viewBox="0 0 379.000000 379.000000"
 preserveAspectRatio="xMidYMid meet">

<g transform="translate(0.000000,379.000000) scale(0.100000,-0.100000)"
fill="#000000" stroke="none">
<path d="M1690 3779 c-226 -25 -439 -90 -650 -196 -367 -185 -648 -466 -833
-833 -168 -333 -235 -693 -196 -1048 81 -747 579 -1366 1289 -1603 203 -67
287 -80 545 -86 205 -5 244 -3 359 17 804 136 1420 752 1556 1556 20 115 22
154 17 359 -6 258 -19 342 -86 545 -283 846 -1123 1388 -2001 1289z m320 -829
c423 -44 784 -349 904 -762 34 -118 48 -270 35 -393 -51 -508 -447 -904 -954
-954 -577 -58 -1096 368 -1155 948 -60 588 376 1114 965 1164 80 7 112 6 205
-3z"/>
<path d="M2210 2640 c0 -80 -50 -156 -125 -191 -32 -15 -65 -19 -167 -19
l-128 0 -1 -112 c-1 -139 -6 -157 -48 -185 -31 -21 -46 -23 -152 -23 l-119 0
0 -105 0 -105 313 0 c183 0 327 -4 349 -10 20 -6 46 -22 58 -37 18 -24 20 -40
20 -204 l0 -179 68 0 c37 0 85 -5 107 -11 39 -11 95 -59 126 -109 l16 -24 48
64 c107 146 154 280 162 465 9 198 -33 353 -139 510 -68 103 -197 222 -296
273 -44 23 -83 42 -86 42 -3 0 -6 -18 -6 -40z"/>
<path d="M1056 2045 c-13 -100 -7 -269 14 -351 27 -106 106 -264 175 -346 119
-143 307 -251 498 -287 l47 -8 0 102 0 102 -41 7 c-23 4 -60 19 -83 35 -58 41
-85 100 -93 204 l-6 85 -252 252 -252 252 -7 -47z"/>
</g>
</svg>
